HIERARCHY
ROOT Hips
{
	OFFSET 0.000000 0.000000 0.000000 
	CHANNELS 6 Xposition Yposition Zposition Zrotation Yrotation Xrotation
	JOINT LeftUpLeg
	{
		OFFSET 1.363060 -1.794630 0.839290 
		CHANNELS 3 Zrotation Yrotation Xrotation
		JOINT LeftLeg
		{
			OFFSET 2.448110 -6.726130 0.000000 
			CHANNELS 3 Zrotation Yrotation Xrotation
			JOINT LeftFoot
			{
				OFFSET 2.562200 -7.039590 0.000000 
				CHANNELS 3 Zrotation Yrotation Xrotation
				JOINT LeftToeBase
				{
					OFFSET 0.157640 -0.433110 2.322550 
					CHANNELS 3 Zrotation Yrotation Xrotation
					End Site
					{
						OFFSET 0.000000 0.000000 0.000000 
					}
				}
			}
		}
	}
	JOINT RightUpLeg
	{
		OFFSET -1.305520 -1.794630 0.839290 
		CHANNELS 3 Zrotation Yrotation Xrotation
		JOINT RightLeg
		{
			OFFSET -2.542530 -6.985550 0.000000 
			CHANNELS 3 Zrotation Yrotation Xrotation
			JOINT RightFoot
			{
				OFFSET -2.568260 -7.056230 0.000000 
				CHANNELS 3 Zrotation Yrotation Xrotation
				JOINT RightToeBase
				{
					OFFSET -0.164730 -0.452590 2.363150 
					CHANNELS 3 Zrotation Yrotation Xrotation
					End Site
					{
						OFFSET 0.000000 0.000000 0.000000 
					}
				}
			}
		}
	}
	JOINT Spine
	{
		OFFSET 0.028270 2.035590 -0.193380 
		CHANNELS 3 Zrotation Yrotation Xrotation
		JOINT Spine1
		{
			OFFSET 0.056720 2.048850 -0.042750 
			CHANNELS 3 Zrotation Yrotation Xrotation
			JOINT Neck1
			{
				OFFSET -0.054170 1.746240 0.172020 
				CHANNELS 3 Zrotation Yrotation Xrotation
				JOINT Head
				{
					OFFSET 0.104070 1.761360 -0.123970 
					CHANNELS 3 Zrotation Yrotation Xrotation
					End Site
					{
						OFFSET 0.000000 0.000000 0.000000 
					}
				}
			}
			JOINT LeftArm
			{
				OFFSET 3.362410 1.200890 -0.311210 
				CHANNELS 3 Zrotation Yrotation Xrotation
				JOINT LeftForeArm
				{
					OFFSET 4.983000 -0.000000 -0.000000 
					CHANNELS 3 Zrotation Yrotation Xrotation
					JOINT LeftHand
					{
						OFFSET 3.483560 -0.000000 -0.000000 
						CHANNELS 3 Zrotation Yrotation Xrotation
						JOINT LeftHandIndex1
						{
							OFFSET 0.715260 -0.000000 -0.000000 
							CHANNELS 3 Zrotation Yrotation Xrotation
							End Site
							{
								OFFSET 0.000000 0.000000 0.000000 
							}
						}
					}
				}
			}
			JOINT RightArm
			{
				OFFSET -3.136600 1.374050 -0.404650 
				CHANNELS 3 Zrotation Yrotation Xrotation
				JOINT RightForeArm
				{
					OFFSET -5.241900 -0.000000 -0.000000 
					CHANNELS 3 Zrotation Yrotation Xrotation
					JOINT RightHand
					{
						OFFSET -3.444170 -0.000000 -0.000000 
						CHANNELS 3 Zrotation Yrotation Xrotation
						JOINT RightHandIndex1
						{
							OFFSET -0.622530 -0.000000 -0.000000 
							CHANNELS 3 Zrotation Yrotation Xrotation
							End Site
							{
								OFFSET 0.000000 0.000000 0.000000 
							}
						}
					}
				}
			}
		}
	}
}
MOTION
Frames: 10
Frame Time: 0.041667
9.249883 17.257340 3.048004 1.855231 -1.963777 -7.101572 -9.772848 5.329142 -13.432155 4.080482 14.227340 41.969311 0.508901 1.875460 -9.650551 0.650100 -5.157500 -14.358400 16.662782 -1.055828 -9.758609 -4.840866 -14.975971 44.923866 2.142808 -12.979914 -16.409251 -0.670500 5.236300 -14.583700 0.756880 0.122617 -3.611218 2.257867 -0.011172 5.087913 5.538798 -2.936794 10.458387 0.337800 -1.203700 4.510100 -14.526353 -46.527461 9.632768 15.112579 -19.074292 -3.633374 -2.344720 0.342076 -7.647900 -7.125000 0.000000 0.000000 17.961929 52.232794 -14.451865 -6.875600 11.714979 -1.870591 2.613833 -1.600125 37.557653 7.125000 0.000000 0.000000 
9.246232 17.257576 3.048828 1.883056 -1.932563 -7.128822 -9.791147 5.343999 -13.398025 4.067948 14.214753 41.925236 0.504794 1.877594 -9.599232 0.651300 -5.162100 -14.371500 16.640336 -1.115964 -9.742024 -4.863426 -14.990811 44.992133 2.157245 -13.002832 -16.307800 -0.701400 5.353300 -14.919100 0.751816 0.125328 -3.620365 2.243847 -0.010068 5.028321 5.546527 -2.947959 10.487667 0.344000 -1.208000 4.558400 -14.608116 -46.529771 9.534230 15.079216 -18.994992 -3.609089 -2.308613 0.374233 -7.410889 -7.125000 0.000000 0.000000 17.940673 52.144264 -14.238836 -6.892541 11.720237 -1.874925 2.626697 -1.593039 37.261889 7.125000 0.000000 0.000000 
9.242699 17.258400 3.049417 1.902223 -1.911552 -7.128234 -9.800516 5.353849 -13.397400 4.063665 14.209889 41.909812 0.509967 1.858720 -9.583323 0.684400 -5.289300 -14.735500 16.627174 -1.122194 -9.740517 -4.861826 -14.988392 44.984835 2.146146 -12.955105 -16.287840 -0.671500 5.240100 -14.594600 0.743011 0.144398 -3.630787 2.187006 0.003345 4.970641 5.527621 -2.980810 10.525982 0.314300 -1.221400 4.604700 -14.646538 -46.487190 9.691026 15.120990 -19.009119 -3.617962 -2.299244 0.376753 -7.514632 -7.125000 0.000000 0.000000 17.963179 52.053350 -14.223984 -6.872134 11.690668 -1.896732 2.667007 -1.606534 37.211594 7.125000 0.000000 0.000000 
9.239873 17.258871 3.048828 1.886142 -1.908143 -7.100363 -9.770004 5.367208 -13.428743 4.063245 14.208183 41.903051 0.531858 1.789468 -9.562441 0.695200 -5.330100 -14.852600 16.653550 -1.136197 -9.776666 -4.859339 -14.987511 44.973366 2.152977 -12.958092 -16.215552 -0.664500 5.213400 -14.518200 0.740830 0.163222 -3.630311 2.168569 0.011419 5.016558 5.512092 -2.986487 10.573353 0.292300 -1.221800 4.652100 -14.580430 -46.425016 9.882972 15.200497 -19.108059 -3.651299 -2.324134 0.336256 -7.851523 -7.125000 0.000000 0.000000 17.853378 52.033513 -14.670160 -6.813112 11.642727 -1.878933 2.635307 -1.626178 37.660178 7.125000 0.000000 0.000000 
9.237753 17.258047 3.046237 1.833931 -1.911488 -7.066262 -9.702486 5.385393 -13.476025 4.066442 14.208637 41.903285 0.542978 1.746558 -9.499566 0.666300 -5.220300 -14.538100 16.708650 -1.130799 -9.838568 -4.846932 -14.984136 44.950718 2.123810 -12.920886 -16.439234 -0.649900 5.156700 -14.356200 0.748766 0.153563 -3.622647 2.183127 0.001048 5.102879 5.478180 -2.958430 10.583302 0.258500 -1.208400 4.680600 -14.491467 -46.414016 9.677907 15.171320 -19.109421 -3.650549 -2.350107 0.315946 -7.883799 -7.125000 0.000000 0.000000 17.686911 52.095914 -15.147573 -6.749214 11.616726 -1.856158 2.600471 -1.630785 37.978545 7.125000 0.000000 0.000000 
9.234809 17.255221 3.043058 1.783499 -1.896094 -7.038829 -9.638134 5.403639 -13.518435 4.068400 14.207436 41.898878 0.533575 1.764891 -9.431957 0.657600 -5.186800 -14.442100 16.764515 -1.122786 -9.895866 -4.836118 -14.982456 44.937380 2.080470 -12.848327 -16.709796 -0.621900 5.046400 -14.041000 0.756072 0.127881 -3.616190 2.202582 -0.018488 5.189552 5.468051 -2.946271 10.587099 0.255000 -1.203500 4.725100 -14.372133 -46.396798 9.358066 15.116242 -19.079784 -3.637631 -2.363806 0.305220 -7.841786 -7.125000 0.000000 0.000000 17.557412 52.128283 -15.120948 -6.776343 11.690367 -1.868083 2.625284 -1.600192 37.680577 7.125000 0.000000 0.000000 
9.232571 17.254278 3.043058 1.799588 -1.871074 -7.056200 -9.646846 5.424371 -13.503429 4.065524 14.204595 41.888092 0.533330 1.766930 -9.438271 0.694800 -5.328400 -14.847700 16.750586 -1.209895 -9.874975 -4.841612 -14.981026 44.937352 2.093964 -12.831594 -16.500893 -0.636500 5.104500 -14.207000 0.755893 0.118682 -3.614540 2.227947 -0.028600 5.227017 5.491054 -2.945906 10.602357 0.285700 -1.203900 4.780600 -14.288196 -46.341938 9.310767 15.129439 -19.100987 -3.640930 -2.366508 0.279702 -8.002615 -7.125000 0.000000 0.000000 17.461189 52.082868 -14.892066 -6.831497 11.774592 -1.891774 2.668377 -1.566508 37.257608 7.125000 0.000000 0.000000 
9.231393 17.259107 3.045177 1.831439 -1.842388 -7.085311 -9.679678 5.427239 -13.465495 4.054887 14.195088 41.854496 0.541828 1.745762 -9.465778 0.694400 -5.327000 -14.843700 16.702712 -1.320542 -9.836622 -4.844921 -14.974411 44.924952 2.095568 -12.768217 -16.281788 -0.642300 5.127100 -14.271400 0.751859 0.119887 -3.626893 2.212978 -0.024037 5.137073 5.502904 -2.936602 10.605764 0.293200 -1.198700 4.815100 -14.320247 -46.247359 9.547235 15.183269 -19.126504 -3.655089 -2.366744 0.269604 -8.159152 -7.125000 0.000000 0.000000 17.509405 51.982176 -14.747075 -6.844514 11.754594 -1.900885 2.682027 -1.577079 37.304383 7.125000 0.000000 0.000000 
9.230451 17.264760 3.046120 1.809153 -1.815837 -7.061553 -9.658995 5.429953 -13.472741 4.038478 14.176602 41.791080 0.536639 1.754430 -9.417837 0.656400 -5.182100 -14.428700 16.704586 -1.369645 -9.866600 -4.836929 -14.967391 44.897420 2.075563 -12.702177 -16.309666 -0.629900 5.078300 -14.132000 0.746034 0.143295 -3.644505 2.153074 -0.000799 5.013286 5.495925 -2.964772 10.606732 0.280100 -1.211400 4.836000 -14.395720 -46.165726 9.895655 15.260337 -19.167025 -3.678528 -2.372756 0.262112 -8.285600 -7.125000 0.000000 0.000000 17.608650 51.909531 -15.450581 -6.730224 11.571607 -1.874386 2.630372 -1.651582 38.429879 7.125000 0.000000 0.000000 
9.230451 17.268175 3.046237 1.792464 -1.799413 -7.028377 -9.646529 5.428422 -13.467936 4.020060 14.157241 41.722563 0.533435 1.751261 -9.342305 0.652600 -5.167400 -14.386600 16.695749 -1.386359 -9.900529 -4.826212 -14.959617 44.858941 2.069906 -12.677694 -16.304201 -0.633500 5.092800 -14.173400 0.742839 0.169365 -3.650379 2.116580 0.021930 4.946145 5.457906 -3.007660 10.589480 0.252300 -1.234700 4.832600 -14.448817 -46.134227 10.029812 15.288766 -19.180839 -3.688169 -2.375003 0.265044 -8.304465 -7.125000 0.000000 0.000000 17.606791 51.993114 -17.320178 -6.437640 11.236361 -1.808011 2.522941 -1.756750 40.572773 7.125000 0.000000 0.000000 
